<?xml version="1.0" encoding="UTF-8"?>
<svg width="50px" height="50px" viewBox="0 0 50 50" version="1.1" xmlns="http://www.w3.org/2000/svg" xmlns:xlink="http://www.w3.org/1999/xlink">
    <!-- Generator: Sketch 45.2 (43514) - http://www.bohemiancoding.com/sketch -->
    <title>Logo</title>
    <desc>Created with Sketch.</desc>
    <defs>
        <circle id="path-1" cx="25" cy="25" r="25"></circle>
    </defs>
    <g id="Page-1" stroke="none" stroke-width="1" fill="none" fill-rule="evenodd">
        <g id="Desktop-HD" transform="translate(-695.000000, -10.000000)">
            <g id="Header-8">
                <g id="Logo" transform="translate(695.000000, 10.000000)">
                    <circle id="Background" fill="#0B4CCC" cx="25" cy="25" r="25"></circle>
                    <mask id="mask-2" fill="white">
                        <use xlink:href="#path-1"></use>
                    </mask>
                    <g id="Mask"></g>
                    <g id="Rainbow" mask="url(#mask-2)">
                        <g transform="translate(25.000000, 25.000000) rotate(10.000000) translate(-25.000000, -25.000000) translate(-3.000000, 13.000000)">
                            <rect id="Purple" fill="#D912F9" x="0" y="20" width="56" height="4"></rect>
                            <rect id="Blue" fill="#0B4CCC" x="0" y="16" width="56" height="4"></rect>
                            <rect id="Green" fill="#00E438" x="0" y="12" width="56" height="4"></rect>
                            <rect id="Yellow" fill="#FFF90E" x="0" y="8" width="56" height="4"></rect>
                            <rect id="Orange" fill="#FF8235" x="0" y="4" width="56" height="4"></rect>
                            <rect id="Red" fill="#FB0646" x="0" y="0" width="56" height="4"></rect>
                        </g>
                    </g>
                    <g id="Controller" mask="url(#mask-2)">
                        <g transform="translate(7.500000, 18.500000)">
                            <path d="M13.9691,12.8896 L21.1256,12.8896 C22.5653,14.6289 24.7434,15.7374 27.181,15.7374 C31.5162,15.7374 35.0306,12.2312 35.0306,7.9061 C35.0306,3.5809 31.5162,0.0747 27.181,0.0747 L7.9138,0.0747 C3.5785,0.0747 0.06416,3.5809 0.06416,7.9061 C0.06416,12.2312 3.5785,15.7374 7.9138,15.7374 C10.3513,15.7374 12.5294,14.6289 13.9691,12.8896 Z" id="Fill-10" fill="#FFFFFF"></path>
                            <path d="M25.0877,6.4347 C25.7441,6.4347 26.2771,6.9664 26.2771,7.6213 C26.2771,8.2762 25.7441,8.8078 25.0877,8.8078 C24.4313,8.8078 23.8984,8.2762 23.8984,7.6213 C23.8984,6.9664 24.4313,6.4347 25.0877,6.4347 Z" id="Fill-11" fill="#0B4CCC"></path>
                            <path d="M27.4664,8.8078 C28.1228,8.8078 28.6557,9.3395 28.6557,9.9944 C28.6557,10.6493 28.1228,11.181 27.4664,11.181 C26.81,11.181 26.2771,10.6493 26.2771,9.9944 C26.2771,9.3395 26.81,8.8078 27.4664,8.8078 Z" id="Fill-12" fill="#0B4CCC"></path>
                            <path d="M29.8451,6.4347 C30.5015,6.4347 31.0344,6.9664 31.0344,7.6213 C31.0344,8.2762 30.5015,8.8078 29.8451,8.8078 C29.1887,8.8078 28.6557,8.2762 28.6557,7.6213 C28.6557,6.9664 29.1887,6.4347 29.8451,6.4347 Z" id="Fill-13" fill="#0B4CCC"></path>
                            <path d="M27.4664,4.0616 C28.1228,4.0616 28.6557,4.5933 28.6557,5.2482 C28.6557,5.903 28.1228,6.4347 27.4664,6.4347 C26.81,6.4347 26.2771,5.903 26.2771,5.2482 C26.2771,4.5933 26.81,4.0616 27.4664,4.0616 Z" id="Fill-14" fill="#0B4CCC"></path>
                            <path d="M17.1906,9.5299 C17.1906,9.4195 17.1009,9.3299 16.9906,9.3299 L15.2498,9.3299 C15.1394,9.3299 15.0498,9.4195 15.0498,9.5299 L15.0498,9.8419 C15.0498,9.9522 15.1394,10.0419 15.2498,10.0419 L16.9906,10.0419 C17.1009,10.0419 17.1906,9.9522 17.1906,9.8419 L17.1906,9.5299 Z" id="Fill-15" fill="#0B4CCC"></path>
                            <path d="M20.045,9.5299 C20.045,9.4195 19.9553,9.3299 19.845,9.3299 L18.1042,9.3299 C17.9938,9.3299 17.9042,9.4195 17.9042,9.5299 L17.9042,9.8419 C17.9042,9.9522 17.9938,10.0419 18.1042,10.0419 L19.845,10.0419 C19.9553,10.0419 20.045,9.9522 20.045,9.8419 L20.045,9.5299 Z" id="Fill-16" fill="#0B4CCC"></path>
                            <polygon id="Fill-17" fill="#0B4CCC" points="4.0603 9.0452 11.1963 9.0452 11.1963 6.37543 4.0603 6.37543"></polygon>
                            <polygon id="Fill-18" fill="#0B4CCC" points="6.2011 11.181 8.8771 11.181 8.8771 4.06162 6.2011 4.06162"></polygon>
                        </g>
                    </g>
                </g>
            </g>
        </g>
    </g>
</svg>